<?xml version="1.0" encoding="utf-8"?>
<!-- Generator: Adobe Illustrator 22.1.0, SVG Export Plug-In . SVG Version: 6.00 Build 0)  -->
<svg version="1.1" id="图层_1" xmlns="http://www.w3.org/2000/svg" xmlns:xlink="http://www.w3.org/1999/xlink" x="0px" y="0px"
	 viewBox="0 0 24 24" style="enable-background:new 0 0 24 24;" xml:space="preserve">
<style type="text/css">
	.st0{fill:#FFFFFF;}
	.st1{fill:#777777;}
	.st2{opacity:0;}
</style>
<g id="图层_2_4_">
	<g id="design_3_">
		<g class="st2">
			<rect x="-1" y="-1" class="st1" width="26" height="26"/>
		</g>
		<path class="st1" d="M9.3,12.5c-1.9,0.2-3.6,2-3.4,3.6c0.2,1.7,1.8,2.6,3.7,2.5c1.8,0,3.3-1.5,3.3-3.3
			C12.7,13.6,11.1,12.3,9.3,12.5C9.3,12.5,9.3,12.5,9.3,12.5z M8.6,17c-0.5,0.1-1.1-0.1-1.3-0.6c-0.1-0.4,0.3-1,1-1.1
			c0.5-0.1,1.1,0.1,1.3,0.6C9.7,16.4,9.3,16.9,8.6,17z M19.1,10.2c0.3,0,0.6-0.2,0.7-0.5l0,0c0.1-0.3,0.1-0.6,0.1-0.8
			c0-1.5-1.2-2.8-2.8-2.8c0,0,0,0,0,0c-0.2,0-0.4,0-0.5,0.1C16.2,6.3,16,6.6,16,6.9c0,0.4,0.3,0.7,0.7,0.7c0,0,0,0,0,0h0.4
			c0.7-0.1,1.2,0.4,1.3,1.1c0,0.1,0,0.1,0,0.2c0,0.1,0,0.3-0.1,0.4l0,0v0.2C18.4,9.9,18.7,10.2,19.1,10.2z M17.2,3.2
			c-0.4,0-0.8,0-1.1,0.1c-0.4,0.1-0.7,0.4-0.7,0.8c0,0.5,0.4,0.9,0.9,0.9c0,0,0,0,0,0h0.2C16.7,5,17,4.9,17.3,4.9
			c2.2,0,3.9,1.7,3.9,3.9c0,0.4-0.1,0.9-0.2,1.3l0,0v0.3c0,0.5,0.4,0.9,0.9,0.9c0.4,0,0.8-0.3,0.9-0.7c0.1-0.5,0.2-1.1,0.2-1.7
			C23,5.8,20.4,3.2,17.2,3.2z M17.1,11.5c0.3-1,0.7-2.5-0.3-3c-1.6-0.5-3.4-0.3-4.9,0.4C12,8.3,12,7.8,12,7.2c0-0.8-0.6-1.6-1.5-1.7
			c-4,0-9.5,5.9-9.5,9.1C1,15.9,1.5,17.2,2.5,18c2.2,1.9,5,2.8,7.8,2.7c3.5,0.1,6.8-1.3,9.1-3.9c0.6-0.7,0.9-1.6,0.8-2.5
			C20.1,13.1,19,12,17.1,11.5z M10.1,19.5c-3.5,0.2-6.7-1.5-6.8-3.7S6,11.1,10,11c3.7-0.1,6.1,1.5,6.3,3.7
			C16.6,17,13.7,19.3,10.1,19.5z"/>
	</g>
</g>
</svg>
