<?xml version="1.0" encoding="utf-8"?>
<!-- Generator: Adobe Illustrator 22.1.0, SVG Export Plug-In . SVG Version: 6.00 Build 0)  -->
<svg version="1.1" id="图层_1" xmlns="http://www.w3.org/2000/svg" xmlns:xlink="http://www.w3.org/1999/xlink" x="0px" y="0px"
	 viewBox="0 0 24 24" style="enable-background:new 0 0 24 24;" xml:space="preserve">
<style type="text/css">
	.st0{fill:#FFFFFF;}
	.st1{fill:#777777;}
	.st2{opacity:0;}
</style>
<g>
	<path class="st1" d="M14.7,17.6c0.5,0.5,1,0.8,1.6,1.1c0.6,0.2,1.4,0.4,2.2,0.4c1.1,0,2.1-0.3,2.9-0.8c0.8-0.5,1.4-1.4,1.8-2.6
		h-2.4c-0.1,0.3-0.3,0.6-0.7,0.9c-0.4,0.3-0.9,0.4-1.4,0.4c-0.8,0-1.4-0.2-1.8-0.6c-0.4-0.4-0.7-1.2-0.7-2h7.3c0-0.8,0-1.5-0.2-2.2
		c-0.2-0.7-0.5-1.4-0.9-1.9c-0.4-0.6-0.9-1-1.6-1.3c-0.6-0.3-1.4-0.5-2.2-0.5c-0.7,0-1.4,0.1-2.1,0.4c-1.2,0.5-2.2,1.5-2.7,2.8
		c-0.2,0.7-0.4,1.4-0.4,2.1c0,0.7,0.1,1.5,0.4,2.1C13.9,16.6,14.2,17.1,14.7,17.6z M16.2,12c0.1-0.3,0.2-0.5,0.4-0.7
		c0.2-0.2,0.4-0.4,0.7-0.6c0.3-0.2,0.7-0.2,1.1-0.2c0.7,0,1.2,0.2,1.6,0.6c0.3,0.4,0.6,0.9,0.6,1.6h-4.5
		C16.1,12.5,16.1,12.3,16.2,12z"/>
	<path class="st1" d="M9.3,18.6c0.6-0.1,1.1-0.4,1.6-0.7c0.5-0.3,0.8-0.8,1.1-1.3c0.3-0.5,0.4-1.1,0.4-1.8c0-0.9-0.2-1.6-0.6-2.2
		c-0.4-0.6-1-1-1.9-1.3c0.6-0.3,1.1-0.7,1.4-1.1c0.3-0.5,0.5-1,0.5-1.8c0-0.6-0.1-1.2-0.3-1.6c-0.2-0.4-0.5-0.8-0.9-1.1
		c-0.4-0.3-0.9-0.5-1.4-0.6C8.6,5,8,4.9,7.3,4.9H0.7v13.9h6.8C8.1,18.8,8.7,18.7,9.3,18.6z M3.8,7.3h2.9c0.3,0,0.5,0,0.8,0.1
		c0.2,0,0.5,0.1,0.7,0.2c0.2,0.1,0.4,0.3,0.5,0.5c0.1,0.2,0.2,0.5,0.2,0.8c0,0.6-0.2,1-0.5,1.3c-0.4,0.3-0.8,0.4-1.3,0.4H3.8V7.3z
		 M3.8,16.4v-3.8h3.3c0.7,0,1.2,0.2,1.6,0.5c0.4,0.3,0.6,0.8,0.6,1.5c0,0.4-0.1,0.7-0.2,0.9c-0.1,0.2-0.3,0.4-0.5,0.6
		c-0.2,0.1-0.5,0.2-0.7,0.3c-0.3,0.1-0.6,0.1-0.9,0.1H3.8z"/>
	<rect x="15.5" y="5.3" class="st1" width="5.6" height="1.4"/>
</g>
</svg>
