<?xml version="1.0" encoding="utf-8"?>
<!-- Generator: Adobe Illustrator 22.1.0, SVG Export Plug-In . SVG Version: 6.00 Build 0)  -->
<svg version="1.1" id="图层_1" xmlns="http://www.w3.org/2000/svg" xmlns:xlink="http://www.w3.org/1999/xlink" x="0px" y="0px"
	 viewBox="0 0 24 24" style="enable-background:new 0 0 24 24;" xml:space="preserve">
<style type="text/css">
	.st0{fill:#FFFFFF;}
	.st1{fill:#777777;}
	.st2{opacity:0;}
</style>
<g>
	<circle class="st1" cx="12" cy="12.4" r="3.3"/>
	<path class="st1" d="M22,8.1c0-3.1-2.5-5.6-5.6-5.6c0,0-2.2-0.1-4.4-0.1S7.7,2.5,7.7,2.5C4.6,2.5,2,5,2,8.2c0,0-0.1,2-0.1,4.1
		C2,14.4,2,16.7,2,16.7c0,3.1,2.5,5.7,5.7,5.7c0,0,2,0.1,4.1,0.1c2.2,0,4.6-0.1,4.6-0.1c3.1,0,5.6-2.5,5.6-5.6c0,0,0.1-2.3,0.1-4.4
		C22,10.3,22,8.1,22,8.1z M12,18c-3.1,0-5.6-2.5-5.6-5.6S8.9,6.9,12,6.9s5.6,2.5,5.6,5.6S15.1,18,12,18z M18.4,8
		c-0.7,0-1.3-0.6-1.3-1.3c0-0.7,0.6-1.3,1.3-1.3c0.7,0,1.3,0.6,1.3,1.3C19.7,7.4,19.2,8,18.4,8z"/>
</g>
</svg>
