<?xml version="1.0" encoding="utf-8"?>
<!-- Generator: Adobe Illustrator 22.1.0, SVG Export Plug-In . SVG Version: 6.00 Build 0)  -->
<svg version="1.1" id="图层_1" xmlns="http://www.w3.org/2000/svg" xmlns:xlink="http://www.w3.org/1999/xlink" x="0px" y="0px"
	 viewBox="0 0 24 24" style="enable-background:new 0 0 24 24;" xml:space="preserve">
<style type="text/css">
	.st0{fill:#FFFFFF;}
	.st1{fill:#777777;}
	.st2{opacity:0;}
</style>
<path class="st1" d="M21.5,11c-0.6,0.3-1.4,0.5-2.1,0.6c1.1-1,2.2-2.1,2.6-3.5c0.6-1.9,0.6-3.6,0.1-5.5c0-0.2-0.2-0.3-0.3-0.3
	c-0.2,0-0.3,0-0.4,0.2c-1.5,2.1-3.4,3.5-5.6,3.9c0.6-1.3,1.3-2.8,1.2-4.3c0-0.2-0.1-0.3-0.3-0.4c-0.2-0.1-0.3,0-0.5,0.1
	c-2.3,2.3-4.1,2.8-6.3,2.9c-2.4,0-4.7,1.2-6.3,3.1C2,9.8,1.3,12.2,1.6,14.6C2.2,18.5,5,21.3,8.8,22c0.5,0.1,0.9,0.1,1.4,0.1
	c3.1,0,5.9-1.7,7.5-4.6c0.2-0.3,0.5-0.7,0.8-0.9c1.5-1.1,2.7-2.5,3.3-4.1c0.1-0.2,0.2-0.5,0.2-0.8l0-0.2c0-0.2,0-0.4-0.2-0.5
	C21.8,11,21.6,10.9,21.5,11L21.5,11z M2.5,14c0.4,1.2,2.6,1.6,2.6,1.6C3.3,17.6,2.5,14,2.5,14z M8,15.5c0,0,4.6-0.5,6.4-2.1
	C14.4,13.4,11.7,19.5,8,15.5z"/>
</svg>
