<?xml version="1.0" standalone="no"?><!DOCTYPE svg PUBLIC "-//W3C//DTD SVG 1.1//EN" "http://www.w3.org/Graphics/SVG/1.1/DTD/svg11.dtd"><svg class="icon" width="48px" height="48.00px" viewBox="0 0 1024 1024" version="1.1" xmlns="http://www.w3.org/2000/svg"><path fill="#777777" d="M932.571429 54.857143H91.428571c-20.228571 0-36.571429 16.342857-36.571428 36.571428v841.142858c0 20.228571 16.342857 36.571429 36.571428 36.571428h841.142858c20.228571 0 36.571429-16.342857 36.571428-36.571428V91.428571c0-20.228571-16.342857-36.571429-36.571428-36.571428zM804.571429 289.942857l-46.628572 44.685714c-4.114286 3.085714-6.057143 8.114286-5.257143 13.028572v328.8c-0.8 5.028571 1.142857 10.057143 5.257143 13.028571l45.714286 44.685715v9.942857H574.171429v-9.485715l47.2-45.828571c4.685714-4.685714 4.685714-6.057143 4.685714-13.028571V409.714286l-131.428572 333.257143h-17.714285L324 409.714286V633.142857c-1.371429 9.371429 1.942857 18.857143 8.571429 25.6l61.485714 74.4v9.942857H219.428571v-9.942857l61.485715-74.4a29.828571 29.828571 0 0 0 8-25.6V374.857143c0.8-7.2-1.942857-14.171429-7.428572-19.085714l-54.628571-65.828572V280H396.571429l130.971428 287.428571 115.314286-287.2H804.571429v9.714286z" /></svg>