<svg xmlns="http://www.w3.org/2000/svg" viewBox="0 0 595.28 188.67"><title>资源 3</title><g id="图层_2" data-name="图层 2"><g id="图层_1-2" data-name="图层 1"><path d="M106.36,58.48c0,20.36,14.67,35.75,35.22,46.41,17.34,9,23.31,16.27,23.31,27.3,0,12-10.19,21.89-27.55,21.94-16.07.05-33.42-6.72-42.77-11.76l-11,30.39c9.4,7.05,28.83,13.16,49.82,13.16,42.85,0,75.59-21.68,75.59-60.94,0-22.6-17.3-37.32-36.88-47.79-15.08-7.88-22.91-14.76-22.91-24.71,0-12.09,11-20.58,27-20.58a75.06,75.06,0,0,1,33.39,7.91L220.31,9c-7.8-4.73-23.15-9-41.85-9C136.35,0,106.36,24.18,106.36,58.48Z"/><polygon points="0 182.08 42.58 182.08 74.67 4.03 32.09 4.03 0 182.08"/><polygon points="595.28 4.02 544.71 4.02 500.61 54.35 476.09 3.98 430.95 3.98 471.6 87.47 388.45 182.38 439.02 182.38 489.67 124.57 517.78 182.33 562.92 182.33 518.68 91.46 595.28 4.02"/><path d="M363.84,4,344,108c-7.89,41.86-26.17,46.7-39.23,46.7-15.48,0-24.35-9.06-24.35-24.86a108.72,108.72,0,0,1,2-20.52L302.57,4h-39l-19.3,101.55a162.24,162.24,0,0,0-2.39,25.1c0,18.26,5.16,32.65,15.34,42.75s24.95,15.29,43,15.29h.74c45.41,0,71.42-25.28,81.86-79.57L402.88,4Z"/></g></g></svg>